<svg xmlns="http://www.w3.org/2000/svg" width="621.554" height="759" viewBox="0 0 621.554 759">
  <g id="Grupo_12" data-name="Grupo 12" transform="translate(-354.832 565.419)">
    <path id="Trazado_127" data-name="Trazado 127" d="M724.427-329.824a241.063,241.063,0,0,0-7.838-37.107L707.3-390.724c-2.244,1.414-54.284,23.357-54.284,23.357L608.237-354.02l116.412,25.882C724.576-328.7,724.5-329.262,724.427-329.824Z" transform="translate(104.654 72.147)" fill="#161616"/>
    <path id="Trazado_128" data-name="Trazado 128" d="M724.649-338.866,608.237-364.748c123,102.7,117.838,107.917,117.838,107.917l.787-10.224A395.246,395.246,0,0,0,724.649-338.866Z" transform="translate(104.654 82.875)" fill="#212121"/>
    <path id="Trazado_129" data-name="Trazado 129" d="M530.025-371.764l-41.751,48.987L569-303.91q2.056-1.31,4.175-2.586c1.406-.846,2.8-1.7,4.253-2.522L598.39-415.2Z" transform="translate(55.11 62.037)" fill="#d5d5d5"/>
    <path id="Trazado_130" data-name="Trazado 130" d="M569.855-138.854c-.521-.048-1.034-.085-1.55-.127" transform="translate(88.162 176.114)" fill="#e9e9e8"/>
    <path id="Trazado_131" data-name="Trazado 131" d="M514.118-470.64c-24.135-20.7-50.732-37.65-75.191-50.961-45.843-24.949-84.1-43.818-84.1-43.818l84.1,97.392,90.693,11.543Z" transform="translate(0 0)" fill="#636362"/>
    <path id="Trazado_132" data-name="Trazado 132" d="M438.929-468.027l-84.1-97.392s27.141,26.9,42.048,88.624Z" transform="translate(0 0)" fill="#2e2e2e"/>
    <path id="Trazado_133" data-name="Trazado 133" d="M389.928-482.473l34.507,52.488v-66.508Z" transform="translate(14.494 28.466)" fill="#212121"/>
    <path id="Trazado_134" data-name="Trazado 134" d="M414.349-429.985l90.693-54.965-90.693-11.543Z" transform="translate(24.58 28.466)" fill="#3d3d3d"/>
    <path id="Trazado_135" data-name="Trazado 135" d="M424.493-434.083l-34.507-52.488-.2,1.875c-.227,6.385,9.776,68.55,8.67,74.893l-.9,8.7Z" transform="translate(14.436 32.563)" fill="#161616"/>
    <path id="Trazado_136" data-name="Trazado 136" d="M482.75-368.293l22.291-120.03-90.693,54.965Z" transform="translate(24.58 31.84)" fill="#484848"/>
    <path id="Trazado_137" data-name="Trazado 137" d="M422.221-449.424l-26.933,32.979,95.335,32.086Z" transform="translate(16.708 47.905)" fill="#3d3d3d"/>
    <path id="Trazado_138" data-name="Trazado 138" d="M409.121-426.084l-14.593,26.923c-5.294,10.325-10.333,20.994-14.875,31.99A285.423,285.423,0,0,0,361.791-307.3L504.456-394Z" transform="translate(2.874 57.544)" fill="#353636"/>
    <path id="Trazado_139" data-name="Trazado 139" d="M362.759-316.682a208.381,208.381,0,0,0-.5,71.08L505.425-403.376Z" transform="translate(1.906 66.922)" fill="#2e2e2e"/>
    <path id="Trazado_140" data-name="Trazado 140" d="M413.339-219.492l-45.127,1.54,57.582-24.294.158-.288L504.6-403.376,361.438-245.6a211.985,211.985,0,0,0,8.191,32.24l3.945,10.573a239.847,239.847,0,0,0,14.387,29.652Z" transform="translate(2.728 66.922)" fill="#212121"/>
    <path id="Trazado_141" data-name="Trazado 141" d="M462.758-398.491l5.251,125.664,30.8-49.951s34.793-39.771,42.808-48.016,67.308-44.41,67.308-44.41Z" transform="translate(44.572 62.037)" fill="#2e2e2e"/>
    <path id="Trazado_142" data-name="Trazado 142" d="M491.043-277.712l-5.252-125.664-78.807,161.13Z" transform="translate(21.538 66.922)" fill="#161616"/>
    <path id="Trazado_143" data-name="Trazado 143" d="M405.586-273.12l-25.377,46.356a312.472,312.472,0,0,0,34.244,47.954l2.921-94.713Z" transform="translate(10.48 120.55)" fill="#2e2e2e"/>
    <path id="Trazado_144" data-name="Trazado 144" d="M424.335-279.2l-.371.156-.15.064-57.583,24.295,50.541-11.431.5-.114,6.326-1.431,74.969-16.957,9.3-29.828Z" transform="translate(4.708 103.651)" fill="#e9e9e8"/>
    <path id="Trazado_145" data-name="Trazado 145" d="M404.451-178.863c16.864,19.561,37.624,39.455,62.9,59.625l-59.894-154.13Z" transform="translate(20.492 120.614)" fill="#212121"/>
    <path id="Trazado_146" data-name="Trazado 146" d="M407.365-273.523l-2.921,94.713.009.011,3.009-94.505-.085-.219Z" transform="translate(20.489 120.55)" fill="#212121"/>
    <path id="Trazado_147" data-name="Trazado 147" d="M406.588-272.854l-.007.222,59.9,154.13,7.42-156.651Z" transform="translate(21.372 119.877)" fill="#161616"/>
    <path id="Trazado_148" data-name="Trazado 148" d="M406.605-273.3l.007-.222-.092,0Z" transform="translate(21.347 120.549)" fill="#003853"/>
    <path id="Trazado_149" data-name="Trazado 149" d="M450.2-164.287l53.585,81.114C484.005-62.908,472.547-56.561,459.59,27.918c-23.505-128.427-9.394-192.2-9.394-192.2" transform="translate(37.65 165.663)" fill="#d5d5d5"/>
    <path id="Trazado_150" data-name="Trazado 150" d="M448.969-164.287l53.585,81.114c19.057-16.774,34.094-23.7,56.137-35.127l.177-.256Z" transform="translate(38.878 165.663)" fill="#e9e9e8"/>
    <path id="Trazado_151" data-name="Trazado 151" d="M616.629-149.485l-10.555,26.992c19.985,7.021,42.246,17.186,67.13,31.243l-27.453-32.168A282.319,282.319,0,0,0,616.629-149.485Z" transform="translate(103.76 171.776)" fill="#ecebea"/>
    <path id="Trazado_152" data-name="Trazado 152" d="M617.448-113.706,628-140.7a250.577,250.577,0,0,0-49.469-30.063l33.789,55.285C614.007-114.92,615.731-114.309,617.448-113.706Z" transform="translate(92.387 162.99)" fill="#d5d5d5"/>
    <path id="Trazado_153" data-name="Trazado 153" d="M616.094-115.111,582.305-170.4c-.923-.421-1.847-.845-2.767-1.25L569.4-125.364C583.3-124.1,598.809-120.826,616.094-115.111Z" transform="translate(88.615 162.624)" fill="#e6e5e4"/>
    <path id="Trazado_154" data-name="Trazado 154" d="M541.454-109.663l7.691-74a224.967,224.967,0,0,0-32.974-2.151l-8.013.228a169.03,169.03,0,0,0-17.027,1.633Z" transform="translate(56.29 156.77)" fill="#e6e5e4"/>
    <path id="Trazado_155" data-name="Trazado 155" d="M585.468-120.268,537.43-183.854q-1.507-.229-2.993-.437l-7.691,74,.411-.057C542.437-118.126,561.552-122.194,585.468-120.268Z" transform="translate(70.999 157.402)" fill="#d5d5d5"/>
    <path id="Trazado_156" data-name="Trazado 156" d="M583.9-120.269l10.137-46.282a235.3,235.3,0,0,0-59.726-17.431L582.346-120.4C582.862-120.354,583.375-120.317,583.9-120.269Z" transform="translate(74.121 157.53)" fill="#e9e9e8"/>
    <path id="Trazado_157" data-name="Trazado 157" d="M508.545-184.5c-3,.456-4.611.815-4.611.815h0l-54.965,27.74,109.9,45.731Z" transform="translate(38.878 157.317)" fill="#ecebea"/>
    <path id="Trazado_158" data-name="Trazado 158" d="M501.609-163.437,456.39-275.152,448.969-118.5l54.965-27.74S502.634-152.657,501.609-163.437Z" transform="translate(38.878 119.877)" fill="#d5d5d5"/>
    <path id="Trazado_159" data-name="Trazado 159" d="M454.221-258.926l45.218,111.715c-.629-6.607-1.152-14.859-1.209-24.284l-26.7-142.947Z" transform="translate(41.047 103.651)" fill="#e6e5e4"/>
    <path id="Trazado_160" data-name="Trazado 160" d="M466.474-299.842,493.17-156.9a260.894,260.894,0,0,1,5.789-57.017l-1.681-135.879Z" transform="translate(46.107 89.052)" fill="#d5d5d5"/>
    <path id="Trazado_161" data-name="Trazado 161" d="M489.956-213.913h0l-1.682-135.879Z" transform="translate(55.11 89.052)" fill="#e9e9e8"/>
    <path id="Trazado_162" data-name="Trazado 162" d="M488.274-349.791l1.681,135.879A205.516,205.516,0,0,1,506.244-261a174.757,174.757,0,0,1,23.268-35.614A173.94,173.94,0,0,1,569-330.925Z" transform="translate(55.11 89.052)" fill="#e6e5e4"/>
    <path id="Trazado_163" data-name="Trazado 163" d="M551.371-309.018c22.382-12.71,44.906-24.383,80.351-34.892L572.331-415.2Z" transform="translate(81.168 62.037)" fill="#e6e5e4"/>
    <path id="Trazado_164" data-name="Trazado 164" d="M566.2-415.2,625.6-343.91l44.783-13.347Z" transform="translate(87.295 62.037)" fill="#d5d5d5"/>
    <path id="Trazado_165" data-name="Trazado 165" d="M566.205-396.227,783.044-387.6c.829-.716-.82.716,0,0l-57.4-73.555Z" transform="translate(87.295 43.06)" fill="#d5d5d5"/>
    <path id="Trazado_166" data-name="Trazado 166" d="M736.442-387.6c14.88-13.011,31.789-26.413,43.326-38.912L679.045-461.154Z" transform="translate(133.897 43.06)" fill="#e9e9e8"/>
    <path id="Trazado_167" data-name="Trazado 167" d="M679.045-456.32l100.724,34.642c.5-.543,1-1.085,1.5-1.624l-30.6-49.558Z" transform="translate(133.897 38.226)" fill="#e9e9e8"/>
    <path id="Trazado_168" data-name="Trazado 168" d="M729.735-466.222l30.6,49.556c9.842-10.754,18.449-21.052,25.863-30.532,10.46-13.373,35.36-41.731,35.36-41.731Z" transform="translate(154.831 31.59)" fill="#e6e5e4"/>
    <path id="Trazado_169" data-name="Trazado 169" d="M423.6-276.375l-6.326,1.431-.5.114L366.232-263.4l45.126-1.541.481-.016,11.307-.386v-.031l.1,0,67.307-2.268,8.011-25.687Z" transform="translate(4.708 112.369)" fill="#d5d5d5"/>
    <path id="Trazado_170" data-name="Trazado 170" d="M406.524-273.515l-.012-.03v.031Z" transform="translate(21.343 120.541)" fill="#d5d5d5"/>
    <path id="Trazado_171" data-name="Trazado 171" d="M406.586-272.854l67.308-2.3-67.307,2.268Z" transform="translate(21.374 119.877)" fill="#d5d5d5"/>
    <path id="Trazado_172" data-name="Trazado 172" d="M406.512-273.544l.012.03.092,0v-.031Z" transform="translate(21.343 120.54)" fill="#d5d5d5"/>
    <path id="Trazado_173" data-name="Trazado 173" d="M566.205-415.2l104.173,57.947s91.857-38.416,112.666-49.319Z" transform="translate(87.295 62.037)" fill="#e9e9e8"/>
    <path id="Trazado_174" data-name="Trazado 174" d="M842.49-471.792s-56.144-41.216-144.614-58.632l-18.831,97.878L749.6-448.841Z" transform="translate(133.897 14.453)" fill="#636362"/>
    <path id="Trazado_175" data-name="Trazado 175" d="M676.351-533.609q-12.066-.822-24.431-1.392l38.327,104.345,18.831-97.878C698.608-530.6,687.686-532.323,676.351-533.609Z" transform="translate(122.694 12.562)" fill="#484848"/>
    <path id="Trazado_176" data-name="Trazado 176" d="M566.205-365.729l159.442-64.927L687.319-535C685.162-535.1,566.205-365.729,566.205-365.729Z" transform="translate(87.295 12.562)" fill="#636362"/>
    <path id="Trazado_177" data-name="Trazado 177" d="M588.12-526.789l-21.915,161.18L687.319-534.881C667.529-536.682,611.13-532.286,588.12-526.789Z" transform="translate(87.295 12.443)" fill="#3d3d3d"/>
    <path id="Trazado_178" data-name="Trazado 178" d="M533.372-510.371l46.393,142.277,21.915-161.18c-5.128.473-10.325,1.242-15.536,2.19A459.017,459.017,0,0,0,533.372-510.371Z" transform="translate(73.735 14.928)" fill="#4e4d4d"/>
    <path id="Trazado_179" data-name="Trazado 179" d="M485.048-476.937l-22.29,120.031L562.535-515.9A498.158,498.158,0,0,0,485.048-476.937Z" transform="translate(44.572 20.452)" fill="#3d3d3d"/>
    <path id="Trazado_180" data-name="Trazado 180" d="M545.587-515.871l-41.793,152.36,88.186-10.083L545.587-515.871C544.843-515.586,546.333-516.162,545.587-515.871Z" transform="translate(61.52 20.428)" fill="#636362"/>
    <path id="Trazado_181" data-name="Trazado 181" d="M562.535-515.869c-17.918,27.878-99.777,158.99-99.777,158.99l57.983-6.63,41.793-152.36C561.745-515.561,563.326-516.184,562.535-515.869Z" transform="translate(44.572 20.426)" fill="#484848"/>
  </g>
</svg>
